<?xml version="1.0" encoding="UTF-8" standalone="no"?>
<!-- Created with Inkscape (http://www.inkscape.org/) -->

<svg
   width="210.35471mm"
   height="212.22754mm"
   viewBox="0 0 210.35471 212.22754"
   version="1.1"
   id="svg5"
   xml:space="preserve"
   inkscape:version="1.2 (dc2aedaf03, 2022-05-15)"
   sodipodi:docname="java-hotel.svg"
   inkscape:export-filename="java-hotel.png"
   inkscape:export-xdpi="96"
   inkscape:export-ydpi="96"
   xmlns:inkscape="http://www.inkscape.org/namespaces/inkscape"
   xmlns:sodipodi="http://sodipodi.sourceforge.net/DTD/sodipodi-0.dtd"
   xmlns="http://www.w3.org/2000/svg"
   xmlns:svg="http://www.w3.org/2000/svg"><sodipodi:namedview
     id="namedview7"
     pagecolor="#ffffff"
     bordercolor="#999999"
     borderopacity="1"
     inkscape:showpageshadow="0"
     inkscape:pageopacity="0"
     inkscape:pagecheckerboard="0"
     inkscape:deskcolor="#d1d1d1"
     inkscape:document-units="mm"
     showgrid="false"
     inkscape:zoom="0.74400324"
     inkscape:cx="34.946084"
     inkscape:cy="528.89555"
     inkscape:window-width="1671"
     inkscape:window-height="1205"
     inkscape:window-x="628"
     inkscape:window-y="147"
     inkscape:window-maximized="0"
     inkscape:current-layer="layer1" /><defs
     id="defs2" /><g
     inkscape:label="Layer 1"
     inkscape:groupmode="layer"
     id="layer1"
     transform="translate(-0.08504155,0.63902867)"><rect
       style="fill:#e9c6af;stroke-width:0.220164"
       id="rect2207"
       width="210.35471"
       height="212.22754"
       x="0.085041553"
       y="-0.63902867"
       ry="0" /><circle
       id="path135"
       style="fill:#ffffff;stroke:#000000;stroke-width:0.264583"
       cx="41.67646"
       cy="241.36609"
       r="0.038520064" /><ellipse
       id="path137"
       style="fill:#ffffff;stroke:#000000;stroke-width:0.431442"
       cx="21.104675"
       cy="53.732883"
       rx="0.11681608"
       ry="0.13509922" /><rect
       style="fill:#ffffff;stroke-width:0.618303"
       id="rect205"
       width="4.4182272"
       height="7.5589294"
       x="16.378416"
       y="109.7393" /><rect
       style="fill:#ffffff;stroke-width:0.264583"
       id="rect211"
       width="0"
       height="0"
       x="170.31531"
       y="146.56253" /><rect
       style="fill:#ffb380;stroke-width:0.618303"
       id="rect580"
       width="193.39622"
       height="60.273548"
       x="6.9888473"
       y="92.612106" /><path
       style="fill:#ffb380;stroke-width:0.618303"
       id="path811"
       d="m 15.204369,107.67397 c 0.438921,1.99326 0.223265,0.88919 0.610876,3.31936 0,0 10.66782,-5.75285 10.66782,-5.75285 v 0 c -0.283042,-2.53177 -0.144868,-1.38506 -0.404451,-3.44138 0,0 -10.874245,5.87487 -10.874245,5.87487 z" /><path
       style="fill:#ff2a2a;stroke-width:0.618303"
       id="path878"
       d="m 13.728829,105.91189 c 0.133258,6.30017 0.35894,12.5958 0.596047,18.8932 0.06886,4.25127 0.446886,8.53432 -0.06711,12.77473 -0.245963,2.02928 -0.61769,3.32482 -1.093253,5.30013 -0.853279,3.28543 -2.009272,6.47195 -3.134125,9.6662 0,0 10.882406,-5.20803 10.882406,-5.20803 v 0 c 1.080479,-3.22571 2.204251,-6.44154 3.012338,-9.75395 0.480312,-2.21423 0.760595,-3.19412 0.977712,-5.46908 0.406742,-4.26186 -0.01173,-8.55276 -0.116851,-12.81626 -0.233608,-6.35588 -0.494022,-12.71739 -0.147975,-19.07541 0,0 -10.909183,5.68847 -10.909183,5.68847 z" /><path
       style="fill:#ff2a2a;stroke-width:0.618303"
       id="path906"
       d="m 17.780754,129.87498 c 3.505495,-1.04314 7.061677,-1.88687 10.613717,-2.74351 0.80998,-0.17636 1.619968,-0.35289 2.429954,-0.52932 0,0 9.541016,-7.39985 9.541016,-7.39985 v 0 c -0.809821,0.16298 -1.619647,0.32593 -2.429476,0.48891 -3.474372,0.81148 -6.952164,1.58621 -10.393096,2.53209 0,0 -9.762115,7.65168 -9.762115,7.65168 z" /><path
       style="fill:#ff2a2a;stroke-width:0.618303"
       id="path908"
       d="m 40.9863,108.92297 c -0.880378,4.93317 -1.596369,9.89554 -2.256509,14.86398 -0.609947,5.21276 -0.741635,10.46088 -1.294582,15.67859 -0.315056,2.93401 -0.51938,5.87937 -0.654411,8.82744 -0.01067,0.29778 -0.02102,0.59556 -0.03154,0.89336 0,0 10.941934,-5.66785 10.941934,-5.66785 v 0 c 0.005,-0.29022 0.009,-0.58043 0.0152,-0.87065 0.0745,-2.89893 0.24918,-5.79304 0.52339,-8.67973 0.41183,-5.18914 0.49283,-10.40498 1.19479,-15.5683 0.69181,-4.97688 1.28849,-10.00033 2.64519,-14.8441 0,0 -11.082883,5.36726 -11.082883,5.36726 z" /><path
       style="fill:#ff2a2a;stroke-width:0.618303"
       id="path944"
       d="m 59.843112,112.91684 c -3.45203,2.8929 -5.74658,6.64959 -7.70406,10.68941 -1.7399,4.43885 -2.51227,9.1638 -2.55424,13.92691 0.1103,2.60155 0.0294,5.38693 1.31314,7.71614 0.23009,0.22388 0.41791,0.50458 0.6902,0.67165 2.28621,1.40277 6.70906,1.44513 9.32464,1.61496 4.16436,0.10947 8.33702,0.33367 12.5031,0.20923 0.44528,-0.0759 0.90071,-0.10475 1.33587,-0.22766 0.41617,-0.11755 0.83093,-0.26638 1.20365,-0.48932 5.07269,-3.03422 10.61812,-4.70587 13.55284,-9.84436 0.38208,-0.66898 0.68368,-1.38284 1.02552,-2.07425 1.9739,-4.69737 2.89661,-9.74855 2.79003,-14.84558 -0.28358,-4.37572 -2.65326,-7.81212 -5.65997,-10.74121 -2.66128,-2.2148 -5.63452,-3.73873 -8.94608,-4.58507 -2.13436,-0.50295 -4.36288,-0.49742 -6.32847,0.63452 -4.00472,2.30624 -7.94361,4.73019 -11.91542,7.09528 -2.10422,1.48692 -1.08691,0.71981 -3.05499,2.29708 0,0 11.23028,-4.57708 11.23028,-4.57708 v 0 c 1.99052,-1.49188 0.9591,-0.75767 3.09824,-2.19675 -2.9494,1.70929 -5.89886,3.41844 -8.84819,5.12787 -0.43625,0.25286 0.85392,-0.54284 1.30902,-0.75814 1.43202,-0.67743 2.97621,-0.84231 4.51472,-0.52665 3.20425,0.63072 6.07366,1.92592 8.66815,3.99093 2.97526,2.706 4.9427,5.67913 5.21554,9.85339 0.0759,4.92825 -0.89122,9.81342 -3.03965,14.24958 -0.98871,1.65819 -1.08763,2.03114 -2.32039,3.38482 -0.33907,0.37229 -1.53693,1.26986 -1.09439,1.03769 3.16391,-1.6599 6.17803,-3.60411 9.30104,-5.34317 0.36713,-0.2045 -0.65461,0.5421 -1.02725,0.73581 -0.38536,0.20023 -0.8167,0.29001 -1.22505,0.435 -4.15749,0.38464 -8.35585,0.0553 -12.52135,-0.0121 -3.00661,-0.17494 -6.36427,-0.15508 -9.15054,-1.41048 -1.24674,-2.03691 -0.99172,-4.71827 -1.18738,-7.01229 0.0806,-4.5901 0.84897,-9.16019 2.7006,-13.3709 2.06053,-3.97441 4.53944,-7.68959 8.24939,-10.2451 0,0 -11.44855,4.59023 -11.44855,4.59023 z" /><path
       style="fill:#ff2a2a;stroke-width:0.618303"
       id="path946"
       d="m 85.805002,109.1757 c 1.74302,2.34997 3.72806,4.41544 6.12296,6.05828 3.21089,1.72948 6.873492,1.85819 10.420388,2.01013 3.86358,0.20834 7.70697,-0.1794 11.51795,-0.78724 2.37776,-0.47519 4.72173,-1.18014 6.99893,-2.02706 0,0 9.64857,-7.72788 9.64857,-7.72788 v 0 c -2.26634,0.88927 -4.56898,1.68958 -6.93156,2.27648 -3.78461,0.68866 -7.59315,1.29776 -11.45482,1.05298 -3.35632,-0.11876 -6.82854,-0.15398 -9.96394,-1.53343 -2.360472,-1.46112 -4.316118,-3.41897 -5.826078,-5.79103 0,0 -10.5324,6.46877 -10.5324,6.46877 z" /><path
       style="fill:#ff2a2a;stroke-width:0.618303"
       id="path950"
       d="m 103.22257,117.93373 c -2.54987,2.31803 -4.748556,4.90555 -6.395418,7.9614 -1.22481,2.73163 -1.48545,5.74494 -1.62258,8.70889 -0.14671,2.19297 -0.0654,4.34397 0.50787,6.46607 0.5222,1.49826 1.09696,2.9795 1.67389,4.45936 0.15204,0.65805 0.492,1.17588 0.886762,1.7006 0,0 10.565646,-6.49718 10.565646,-6.49718 v 0 c -0.36853,-0.38823 -0.57033,-0.81776 -0.72035,-1.34455 -0.57471,-1.42145 -1.1263,-2.85476 -1.63979,-4.29723 -0.49386,-1.99875 -0.47803,-4.04371 -0.37948,-6.09361 0.16216,-2.80883 0.45003,-5.64023 1.81127,-8.14803 1.75426,-2.9235 4.0395,-5.46686 6.71924,-7.53709 0,0 -11.40706,4.62137 -11.40706,4.62137 z" /><path
       style="fill:#ff2a2a;stroke-width:0.618303"
       id="path954"
       d="m 144.8644,100.74661 c -3.30322,-0.837082 -6.63463,-0.945792 -9.95826,-0.24301 -5.0752,2.07141 -12.21959,3.54241 -14.33108,9.00826 -0.36181,0.93654 -0.43063,1.65006 -0.59951,2.63936 -0.46932,3.35215 -0.20536,6.7066 0.25743,10.03839 0.55838,3.57803 0.85927,7.18646 1.32144,10.77722 0.22292,2.5882 0.83136,5.14604 2.08398,7.41573 0.75636,1.51647 1.77581,2.71835 3.2729,3.46283 2.92773,1.24082 6.09655,1.16791 9.20403,1.06546 0.91972,-0.0965 1.83944,-0.19267 2.75916,-0.28918 0,0 9.56709,-7.2839 9.56709,-7.2839 v 0 c -0.89619,0.11459 -1.79237,0.22908 -2.68855,0.34368 -2.88834,0.15462 -5.89399,0.21845 -8.644,-0.85011 -1.39449,-0.35943 -2.18951,-1.45948 -2.85803,-2.71555 -1.20627,-2.11106 -1.73066,-4.50604 -1.97558,-6.92424 -0.4749,-3.58268 -0.77385,-7.18541 -1.35216,-10.75431 -0.36463,-3.22567 -0.59252,-6.48757 0.0279,-9.70059 0.23817,-0.87035 0.31883,-1.47149 0.83017,-2.21981 0.19105,-0.27951 0.98621,-0.89871 0.69186,-0.73872 -17.71777,9.62951 -11.07163,6.31922 -7.20645,4.27414 3.13185,-0.97081 6.31572,-1.10318 9.49049,-0.17308 0,0 10.10722,-7.13256 10.10722,-7.13256 z" /><path
       style="fill:#ff2a2a;stroke-width:0.618303"
       id="path958"
       d="m 121.31058,127.85413 c 2.52973,-1.09083 5.06451,-2.17841 7.67508,-3.05176 1.91324,-0.49093 3.92133,-1.04381 5.90956,-0.82364 1.33248,0.39918 2.61098,1.02145 3.83715,1.68614 1.32224,0.85193 2.6414,1.65794 4.06088,2.33142 2.04991,0.79487 4.15977,1.41913 6.27778,1.99197 0,0 10.04955,-7.10284 10.04955,-7.10284 v 0 c -2.07216,-0.47336 -4.10708,-1.07253 -6.10885,-1.799 -1.37366,-0.6869 -2.7184,-1.38349 -3.98186,-2.26585 -1.26871,-0.80608 -2.66223,-1.38629 -4.02877,-1.99168 -2.0722,-0.72741 -4.28435,-0.0248 -6.37585,0.34824 -2.62239,0.76835 -5.15515,1.8234 -7.65557,2.9342 0,0 -9.6591,7.7428 -9.6591,7.7428 z" /><path
       style="fill:#ff2a2a;stroke-width:0.618303"
       id="path960"
       d="m 158.9297,105.34279 c -0.82528,3.09875 -1.52214,6.22955 -2.26151,9.35105 -0.76657,3.58057 -1.3623,7.19524 -2.23405,10.7532 -1.28428,4.65072 -2.7814,9.23591 -4.11294,13.87295 -0.87448,3.05679 -1.06292,6.25179 -1.68436,9.35848 -0.0335,0.06 -0.16008,0.21252 -0.10024,0.18037 9.2215,-4.95655 9.82519,-2.83167 12.20581,-8.61351 1.01492,-1.8012 2.88424,-2.83652 4.42603,-4.11507 -3.07403,1.62821 5.74839,-3.59009 2.75889,-1.83002 -17.04306,10.03393 -11.46945,6.74986 -7.76529,4.65339 2.0928,-1.334 4.18587,-0.85425 6.42289,-0.23938 3.21965,0.83954 6.05385,2.572 8.98872,4.08573 3.15262,1.575 6.23845,3.26235 9.23786,5.12308 1.88652,1.25741 3.80968,2.46996 5.8148,3.52079 0.21577,0.0925 0.43159,0.18463 0.64737,0.27701 0,0 10.19089,-7.04989 10.19089,-7.04989 v 0 c -0.19704,-0.0568 -0.39424,-0.11324 -0.59139,-0.16999 -2.06434,-0.87858 -3.99539,-2.0898 -5.87529,-3.31623 -3.02839,-1.87824 -6.14283,-3.58261 -9.32182,-5.18059 -2.97515,-1.5449 -5.80963,-3.37674 -9.05557,-4.30616 -2.23007,-0.74771 -4.65447,-1.69441 -6.9119,-0.58506 -5.52538,2.76435 -10.91848,5.92885 -15.87788,9.66094 -1.67882,1.30493 -3.38448,2.62585 -4.22851,4.67769 -0.75673,1.56764 -1.39398,3.32276 -0.99667,3.15876 11.17328,-4.61195 11.17863,-1.09701 11.08014,-5.49506 0.22361,-3.06105 0.69781,-6.10516 1.49632,-9.06642 1.31801,-4.65184 2.81302,-9.24972 4.09713,-13.91184 0.90568,-3.5726 1.50431,-7.207 2.31009,-10.80304 0.75519,-3.111 1.37313,-6.27529 2.46393,-9.28595 0,0 -11.12344,5.29477 -11.12344,5.29477 z" /><rect
       style="fill:#ac9d93;stroke-width:0.302762"
       id="rect1014"
       width="49.623783"
       height="52.655384"
       x="79.481026"
       y="158.31653" /><path
       style="fill:none;stroke:#000000;stroke-width:0.302762px;stroke-linecap:butt;stroke-linejoin:miter;stroke-opacity:1"
       d="m 87.848549,161.24183 0.347703,47.42709"
       id="path1644" /><path
       style="fill:none;stroke:#000000;stroke-width:0.302762px;stroke-linecap:butt;stroke-linejoin:miter;stroke-opacity:1"
       d="m 96.314693,161.09531 0.347706,47.42709"
       id="path1644-3" /><path
       style="fill:none;stroke:#000000;stroke-width:0.302762px;stroke-linecap:butt;stroke-linejoin:miter;stroke-opacity:1"
       d="m 104.71447,161.74565 0.3477,47.42709"
       id="path1644-3-6" /><path
       style="fill:none;stroke:#000000;stroke-width:0.302762px;stroke-linecap:butt;stroke-linejoin:miter;stroke-opacity:1"
       d="m 113.41743,161.012 0.3477,47.4271"
       id="path1644-3-7" /><path
       style="fill:none;stroke:#000000;stroke-width:0.302762px;stroke-linecap:butt;stroke-linejoin:miter;stroke-opacity:1"
       d="m 122.33807,161.38327 0.3477,47.42709"
       id="path1644-3-5" /><path
       style="fill:#28170b;stroke-width:0.302762"
       id="path1876"
       d="m 122.77402,189.29127 c 0.72075,1.21932 1.52663,2.40705 2.17763,3.65414 1.03741,2.30379 -1.4994,1.88578 6.15035,-2.17508 0.0937,-0.0498 -0.0113,-0.18491 -0.016,-0.27737 -0.005,-0.0916 -0.009,-0.18304 -0.0134,-0.27457 -0.10097,-0.56159 -0.54513,-1.01906 -0.89798,-1.48833 0,0 -5.74392,2.78086 -5.74392,2.78086 v 0 c 0.29017,0.39217 0.66647,0.77607 0.69911,1.25318 0.004,0.0911 0.009,0.18235 0.0132,0.27355 0.004,0.091 -0.0915,0.30833 0.01,0.27324 5.66124,-1.96545 6.7983,-0.79711 5.57757,-3.08781 -0.72124,-1.19661 -1.53773,-2.35692 -2.12983,-3.60505 0,0 -5.82615,2.67324 -5.82615,2.67324 z" /><g
       id="g2136"
       transform="matrix(0.21354662,0,0,0.19443388,45.846333,1.030038)"><g
         id="g2060">
	<path
   style="fill:#db380e"
   d="m 253.464,94.869 c -23.658,16.639 -50.471,35.498 -64.838,66.699 -24.954,54.435 51.062,113.812 54.311,116.313 0.755,0.581 1.659,0.871 2.56,0.871 0.957,0 1.915,-0.327 2.693,-0.979 1.509,-1.262 1.937,-3.406 1.031,-5.152 -0.275,-0.53 -27.561,-53.53 -26.547,-91.552 0.359,-13.243 18.892,-28.266 38.512,-44.171 17.97,-14.568 38.34,-31.079 50.258,-50.394 26.164,-42.516 -2.916,-84.322 -3.213,-84.74 -1.155,-1.622 -3.287,-2.209 -5.11,-1.41 -1.821,0.804 -2.83,2.773 -2.414,4.72 0.059,0.277 5.714,27.923 -10.022,56.406 -6.482,11.77 -20.726,21.788 -37.221,33.389 z"
   id="path2056" />
	<path
   style="fill:#db380e"
   d="m 353.137,113.617 c 1.669,-1.257 2.159,-3.55 1.15,-5.38 -1.011,-1.83 -3.211,-2.637 -5.165,-1.895 -4.019,1.528 -98.416,37.915 -98.416,81.88 0,30.307 12.946,46.317 22.399,58.009 3.708,4.586 6.909,8.546 7.964,11.927 2.97,9.743 -4.066,27.353 -7.025,33.317 -0.853,1.714 -0.435,3.792 1.016,5.044 0.784,0.677 1.763,1.021 2.743,1.021 0.834,0 1.672,-0.248 2.396,-0.752 1.623,-1.128 39.667,-28.026 32.844,-60.433 -2.542,-12.318 -8.595,-21.318 -13.936,-29.26 -8.274,-12.305 -14.25,-21.193 -5.184,-37.609 10.622,-19.148 58.727,-55.505 59.214,-55.869 z"
   id="path2058" />
</g><g
         id="g2074">
	<path
   style="fill:#73a1fb"
   d="m 107.418,298.236 c -1.618,4.845 -0.854,9.651 2.207,13.903 10.233,14.207 46.48,22.029 102.068,22.029 0.003,0 0.005,0 0.007,0 7.532,0 15.484,-0.148 23.629,-0.44 88.875,-3.181 121.839,-30.869 123.199,-32.046 1.482,-1.283 1.878,-3.419 0.957,-5.147 -0.922,-1.727 -2.909,-2.595 -4.808,-2.072 -31.301,8.546 -89.748,11.58 -130.288,11.58 -45.363,0 -68.465,-3.268 -74.121,-5.681 2.902,-3.985 20.802,-11.101 42.983,-15.464 2.12,-0.416 3.577,-2.374 3.367,-4.524 -0.21,-2.15 -2.016,-3.79 -4.177,-3.79 -13.002,0 -78.207,1.044 -85.023,21.652 z"
   id="path2062" />
	<path
   style="fill:#73a1fb"
   d="m 404.812,269.718 c -18.331,0 -35.714,9.188 -36.446,9.577 -1.695,0.908 -2.555,2.852 -2.09,4.72 0.467,1.865 2.144,3.176 4.067,3.178 0.389,0 39.102,0.317 42.608,22.436 3.106,19.082 -36.629,50 -52.202,60.304 -1.682,1.113 -2.335,3.263 -1.554,5.123 0.665,1.583 2.206,2.573 3.868,2.573 0.29,0 0.584,-0.03 0.876,-0.092 3.696,-0.791 90.406,-19.899 81.238,-70.384 -5.593,-30.94 -25.039,-37.435 -40.365,-37.435 z"
   id="path2064" />
	<path
   style="fill:#73a1fb"
   d="m 345.347,363.755 c 0.302,-1.617 -0.371,-3.262 -1.717,-4.207 l -20.791,-14.563 c -1.014,-0.71 -2.295,-0.933 -3.485,-0.618 -0.217,0.055 -21.959,5.771 -53.525,9.276 -12.528,1.405 -26.56,2.147 -40.582,2.147 -31.558,0 -52.192,-3.708 -55.197,-6.428 -0.398,-0.764 -0.272,-1.111 -0.201,-1.304 0.546,-1.518 3.472,-3.322 5.358,-4.036 2.083,-0.771 3.206,-3.033 2.558,-5.157 -0.646,-2.127 -2.837,-3.378 -4.999,-2.859 -20.856,5.033 -31.054,12.071 -30.312,20.918 1.318,15.686 37.65,23.737 68.365,25.865 4.417,0.302 9.194,0.455 14.195,0.455 0.003,0 0.005,0 0.008,0 51.074,0 116.55,-16.025 117.204,-16.188 1.599,-0.39 2.818,-1.681 3.121,-3.301 z"
   id="path2066" />
	<path
   style="fill:#73a1fb"
   d="m 188.602,397.419 c 1.575,-1.024 2.273,-2.971 1.714,-4.764 -0.557,-1.793 -2.234,-2.971 -4.118,-2.946 -2.795,0.074 -27.349,1.182 -29.068,16.815 -0.52,4.672 0.818,8.941 3.979,12.686 8.816,10.448 32.614,16.658 72.741,18.984 4.747,0.285 9.569,0.428 14.334,0.428 51.015,0 85.373,-15.973 86.812,-16.653 1.395,-0.66 2.315,-2.031 2.397,-3.571 0.082,-1.54 -0.687,-3.001 -2.003,-3.806 l -26.275,-16.04 c -0.912,-0.556 -2.003,-0.74 -3.043,-0.527 -0.166,0.035 -16.849,3.495 -42.026,6.913 -4.764,0.648 -10.73,0.977 -17.73,0.977 -25.15,0 -53.124,-4.109 -58.489,-6.8 -0.078,-0.502 0.021,-1.14 0.775,-1.696 z"
   id="path2068" />
	<path
   style="fill:#73a1fb"
   d="m 224.408,486.85 c 116.854,-0.099 179.571,-20.88 191.653,-33.957 4.277,-4.626 4.739,-9.006 4.376,-11.867 -0.898,-7.04 -7.311,-11.35 -8.038,-11.818 -1.754,-1.128 -4.108,-0.833 -5.476,0.745 -1.365,1.578 -1.397,3.884 -0.027,5.461 0.737,0.948 1.163,2.535 -0.992,4.692 -4.83,4.511 -53.545,18.204 -134.656,22.318 -11.111,0.577 -22.765,0.871 -34.636,0.873 -72.623,0 -125.772,-9.948 -132.749,-15.744 2.689,-3.864 21.489,-10.037 41.482,-13.529 2.253,-0.393 3.775,-2.516 3.426,-4.776 -0.349,-2.259 -2.432,-3.814 -4.709,-3.519 -0.564,0.077 -2.478,0.191 -4.694,0.327 -32.988,2.014 -71.109,6.503 -73.098,23.5 -0.604,5.179 0.935,9.881 4.576,13.973 8.909,10.01 34.516,23.319 153.558,23.319 0.002,0.002 0.002,0.002 0.004,0.002 z"
   id="path2070" />
	<path
   style="fill:#73a1fb"
   d="m 439.013,456.578 c -1.652,-0.764 -3.604,-0.378 -4.836,0.952 -0.171,0.185 -17.74,18.556 -70.564,29.344 -20.223,4.052 -58.183,6.107 -112.826,6.107 -54.745,0 -106.838,-2.154 -107.357,-2.176 -2.176,-0.106 -4.037,1.476 -4.333,3.618 -0.297,2.14 1.083,4.158 3.184,4.658 0.542,0.128 55.135,12.918 129.779,12.918 35.801,0 70.639,-2.907 103.548,-8.645 61.361,-10.757 65.657,-41.183 65.81,-42.473 0.214,-1.803 -0.756,-3.539 -2.405,-4.303 z"
   id="path2072" />
</g><g
         id="g2076">
</g><g
         id="g2078">
</g><g
         id="g2080">
</g><g
         id="g2082">
</g><g
         id="g2084">
</g><g
         id="g2086">
</g><g
         id="g2088">
</g><g
         id="g2090">
</g><g
         id="g2092">
</g><g
         id="g2094">
</g><g
         id="g2096">
</g><g
         id="g2098">
</g><g
         id="g2100">
</g><g
         id="g2102">
</g><g
         id="g2104">
</g></g></g></svg>
